# xmcd
#
# Track frame offsets: 
#        150
#        9080
#        18846
#        29145
#        41366
#        51144
#        61658
#        70985
#        80885
#        91696
#        100488
#        111584
#        122847
#        134379
#        144296
#        156544
#        166924
#        177531
#        187879
#        199926
#        211759
#        220874
#        232088
#        240541
#        251677
#        261184
#        273107
#        281552
#        292654
#        303037
#
# Disc length: 4184 seconds
#
# Revision: 1
# Processed by: cddbd v1.5.2PL0 Copyright (c) Steve Scherf et al.
# Submitted via: ExactAudioCopy v1.1
#
DISCID=ab10561e
DTITLE=The Shirelles - Tonight's the night and Baby it's you
DYEAR=2013
DGENRE=Rhythmic Soul
TTITLE0=Tonight's the Night
TTITLE1=Johnny on My Mind
TTITLE2=Lower the Flame
TTITLE3=Will You Love Me Tomorrow
TTITLE4=Doin' the Ronde
TTITLE5=You Don't Want My Love
TTITLE6=Dedicated to the One I Love
TTITLE7=Boys
TTITLE8=The Dance Is Over
TTITLE9=Oh, What a Waste of Love
TTITLE10=Unlucky
TTITLE11=Tonight at the Prom
TTITLE12=Baby It's You
TTITLE13=Irresistible You
TTITLE14=Things I Want to Hear
TTITLE15=Big John
TTITLE16=The Same Old Story
TTITLE17=Voice of Experience
TTITLE18=Soldier Boy
TTITLE19=A Thing of the Past
TTITLE20=Twenty One
TTITLE21=Make the Night a Little Longer
TTITLE22=Twisting in the U.S.A
TTITLE23=Putty in Your Hands
TTITLE24=Mama Said (Bonus Track)
TTITLE25=It's Mine (Bonus Track)
TTITLE26=I'll Do the Same Thing Too (Bonus Track)
TTITLE27=Mister Twister (Bonus Track)
TTITLE28=Ooh Poo Pah Doo (Bonus Track)
TTITLE29=Mama, Here Comes the Bride (Bonus Track)
EXTD=
EXTT0=
EXTT1=
EXTT2=
EXTT3=
EXTT4=
EXTT5=
EXTT6=
EXTT7=
EXTT8=
EXTT9=
EXTT10=
EXTT11=
EXTT12=
EXTT13=
EXTT14=
EXTT15=
EXTT16=
EXTT17=
EXTT18=
EXTT19=
EXTT20=
EXTT21=
EXTT22=
EXTT23=
EXTT24=
EXTT25=
EXTT26=
EXTT27=
EXTT28=
EXTT29=
PLAYORDER=
